<svg version="1.1" id="Layer_1" xmlns="http://www.w3.org/2000/svg" x="0" y="0" viewBox="0 0 21 20" xml:space="preserve"><path class="st0" d="M5.8 15.3c-1.3 0-2.4-1-2.5-2.3L2.4 2.2.9 1.9C.5 1.8.2 1.5.3 1s.5-.7.9-.6l2.1.4c.3.1.6.3.6.7l.2 2.8h14.4c.6.1 1 .4 1.4.8.3.4.5 1 .4 1.5l-.9 6.5c-.2 1.2-1.3 2.2-2.5 2.2H5.8zM4.2 5.7l.6 7.1c0 .5.5.9 1 .9h10.9c.5 0 1-.4 1-.9l.9-6.5c0-.1 0-.3-.1-.4-.1-.1-.2-.2-.4-.2H4.2z"/><path class="st0" d="M15.1 9.4h-2.8c-.4 0-.8-.3-.8-.8s.3-.8.8-.8h2.8c.4 0 .8.3.8.8s-.3.8-.8.8zm-9.2 9.1c0 .3-.2.5-.5.5"/><path class="st0" d="M5.4 19.8c-.7 0-1.3-.6-1.3-1.3 0-.7.6-1.3 1.3-1.3s1.3.6 1.3 1.3c0 .7-.6 1.3-1.3 1.3zm11.3-1.9c.3 0 .5.2.5.5s-.2.5-.5.5-.5-.2-.5-.5c-.1-.2.2-.5.5-.5z"/><path class="st0" d="M16.7 19.8c-.7 0-1.3-.6-1.3-1.3 0-.7.6-1.3 1.3-1.3s1.3.6 1.3 1.3c0 .7-.6 1.3-1.3 1.3z"/></svg>