<svg width="21" height="21" xmlns="http://www.w3.org/2000/svg"><path fill-rule="evenodd" clip-rule="evenodd" d="M9.989 1.75C5.43 1.75 1.75 5.4 1.75 9.884s3.68 8.134 8.239 8.134c4.558 0 8.238-3.65 8.238-8.134S14.547 1.75 9.99 1.75zM.25 9.884C.25 4.555 4.618.25 9.989.25c5.37 0 9.738 4.305 9.738 9.634 0 5.33-4.368 9.634-9.738 9.634-5.37 0-9.739-4.305-9.739-9.634z"/><path fill-rule="evenodd" clip-rule="evenodd" d="M15.706 15.998a.75.75 0 011.06-.007l3.525 3.474a.75.75 0 01-1.053 1.068l-3.524-3.474a.75.75 0 01-.008-1.06z"/></svg>